@@@@@@@@@@@@@@@@@@@@@@@@@@@@@@--www.tornster.com--@@@@@@@@@@@@@@@@@@@@@@@@@@@@@@
@                                                                              @
@ INFO:                                                                        @
@                                                                              @
@ General                                                                      @
@ Complete name                    : Mr Brooks                                 @
@ Genre                            : Crime / Drama / Mystery / Thriller        @
@ Format                           : AVI                                       @
@ Format/Info                      : Audio Video Interleave                    @
@ File size                        : 1.37 GiB                                  @
@ Duration                         : 1h 55mn                                   @
@ Overall bit rate                 : 1 692 Kbps                                @
@ Writing application              : VirtualDubMod 1.5.4.1 (build 2178/release)@
@ Writing library                  : VirtualDubMod build 2178/release          @
@                                                                              @
@ Video                                                                        @
@ Format                           : MPEG-4 Visual                             @
@ Format settings, BVOP            : Yes                                       @
@ Format settings, QPel            : No                                        @
@ Format settings, GMC             : No warppoints                             @
@ Format settings, Matrix          : Default                                   @
@ Codec ID                         : DX50                                      @
@ Codec ID/Hint                    : DivX 5                                    @
@ Duration                         : 1h 55mn                                   @
@ Bit rate                         : 1 236 Kbps                                @
@ Width                            : 720 pixels                                @
@ Height                           : 384 pixels                                @
@ Display aspect ratio             : 1.875                                     @
@ Frame rate                       : 25.000 fps                                @
@ Resolution                       : 24 bits                                   @
@ Colorimetry                      : 4:2:0                                     @
@ Scan type                        : Progressive                               @
@ Bits/(Pixel*Frame)               : 0.179                                     @
@ Stream size                      : 1.023 MiB (73%)                           @
@ Writing library                  : DivX 2816                                 @
@                                                                              @
@ Audio                                                                        @
@ Format                           : AC-3                                      @
@ Format/Info                      : Audio Coding 3                            @
@ Codec ID                         : 2000                                      @
@ Duration                         : 1h 55mn                                   @
@ Bit rate mode                    : Constant                                  @
@ Bit rate                         : 448 Kbps                                  @
@ Channel(s)                       : 6 channels                                @
@ Channel positions                : Front: L C R, Surround: L R, LFE          @
@ Sampling rate                    : 48.0 KHz                                  @
@ Stream size                      : 371 MiB (26%)                             @
@ Alignment                        : Split accross interleaves                 @
@ Interleave, duration             : 80 ms (2.00 video frames)                 @
@ Interleave, preload duration     : 500 ms                                    @
@ Language                         : English                                   @
@ Subtitles                        : English                                   @
@                                                                              @
@ IMDb Rating                      : 7.5/10                                    @
@ IMDb URL                         : http://www.imdb.com/title/tt0780571/      @
@                                                                              @
@°°°°°°°°°°°°°°°°°°°°°°°°°°°°°°°°°°°°°°°°°°°°°°°°°°°°°°°°°°°°°°°°°°°°°°°°°°°°°°@
@                                                                              @
@ Earl Brooks has a thriving business, a devoted, a loving daughter...and a    @
@ terrible secret. He's a psychopathic serial killer, and no one has ever      @
@ suspected him. Unable to control his horrific addiction, Brooks gives in to  @
@ his sadistic, all-too-real alter ego and succumbs to his murderous urges.    @
@ But a pesky witness to his latest crime and a stubborn detective on the case @
@ add shocking new twists to an already terrifying game of cat and mouse.      @
@                                                                              @
@                                                                              @
@                                                                              @
@                                                                              @
@°°°°°°°°°°°°°°°°°°°°°°°°°°°°°°°°°°°°°°°°°°°°°°°°°°°°°°°°°°°°°°°°°°°°°°°°°°°°°°@
@                                                                              @
@ CAST:                                                                        @
@                                                                              @
@ Kevin Costner..............Mr. Earl Brooks                                   @
@ Demi Moore.................Det. Tracy Atwood                                 @
@ Dane Cook..................Mr. Smith                                         @
@ William Hurt...............Marshall                                          @
@ Marg Helgenberger..........Emma Brooks                                       @
@ Ruben Santiago-Hudson......Hawkins                                           @
@ Danielle Panabaker.........Jane Brooks                                       @  
@                                                                              @
@°°°°°°°°°°°°°°°°°°°°°°°°°°°°°°°°°°°°°°°°°°°°°°°°°°°°°°°°°°°°°°°°°°°°°°°°°°°°°°@
@                                                                              @
@ Trackers:                                                                    @
@                                                                              @
@ http://tracker.publicbt.com:80/announce                                      @
@                                                                              @
@ http://tracker.publicbt.com/announce                                         @
@                                                                              @
@ http://tracker.ilibr.org:6969/announce                                       @
@                                                                              @
@ http://torrent-download.to:5869/announce                                     @
@                                                                              @
@ http://torrent-download.to:5869/announce.php                                 @
@                                                                              @
@ http://denis.stalker.h3q.com:6969/announce                                   @
@                                                                              @
@                                 @
@                                                                              @
@                                                                              @
@°°°°°°°°°°°°°°°°°°°°°°°°°°°°°°°°°°°°°°°°°°°°°°°°°°°°°°°°°°°°°°°°°°°°°°°°°°°°°°@
@                                                                              @
@                            Please remember to seed                           @
@                                                                              @
@                              Standalone Enabled                              @
@                                                                              @
@                               www.tornster.com                               @
@                                                                              @
@@@@@@@@@@@@@@@@@@@@@@@@@@@@@@@@@@@@@@@@@@@@@@@@@@@@@@@@@@@@@@@@@@@@@@@@@@@@@@@@